<svg width="24px" height="24px" viewBox="0 0 24 24" fill="none" xmlns="http://www.w3.org/2000/svg" class="css-1dcqfwl" role="img" version="1.1"><path fill-rule="evenodd" clip-rule="evenodd" d="M21.6 12.227c0-.709-.064-1.39-.182-2.045H12v3.868h5.382a4.6 4.6 0 0 1-1.996 3.018v2.51h3.232c1.891-1.742 2.982-4.305 2.982-7.35Z" fill="#4285F4"></path><path fill-rule="evenodd" clip-rule="evenodd" d="M12 22c2.7 0 4.964-.895 6.618-2.423l-3.232-2.509c-.895.6-2.04.955-3.386.955-2.605 0-4.81-1.76-5.595-4.123H3.064v2.59A9.996 9.996 0 0 0 12 22Z" fill="#34A853"></path><path fill-rule="evenodd" clip-rule="evenodd" d="M6.405 13.9c-.2-.6-.314-1.24-.314-1.9 0-.66.114-1.3.314-1.9V7.51H3.064A9.996 9.996 0 0 0 2 12c0 1.614.386 3.14 1.064 4.49l3.34-2.59Z" fill="#FBBC05"></path><path fill-rule="evenodd" clip-rule="evenodd" d="M11.996 5.977c1.469 0 2.787.505 3.823 1.496l2.868-2.868C16.955 2.99 14.692 2 11.997 2 8.086 2 4.705 4.24 3.06 7.51l3.341 2.59c.786-2.364 2.99-4.123 5.595-4.123Z" fill="#EA4335"></path></svg>